<svg class="w-32 h-10 | lg:w-36 lg:h-14 text-gray-600 fill-current 4xl:w-40 4xl:h-16 dark:text-white" width="601" height="55" xmlns="http://www.w3.org/2000/svg" viewBox="0 0 601 55" f="none">
<path fill-rule="evenodd" clip-rule="evenodd" d="M318.8 53H314.4L308.1 44.1C300.8 51.9 297.5 53.8 292.1 53.8C283.4 53.8 276.5 46.7 276.5 37.9C276.5 31.1 279.8 27 290.5 20.5C285.9 14.4 285.3 13 285.3 9.70001C285.3 4.30001 289.9 0 295.6 0C301.2 0 305.5 4.09999 305.5 9.39999C305.5 13.5 303.6 16.5 298.5 19.9L296.2 21.4L308.2 38C310.048 36.0401 311.112 34.9268 312.34 33.6417L312.347 33.6348L312.351 33.6301L312.353 33.6288L312.364 33.6165C313.323 32.6134 314.385 31.5018 316 29.8L318.9 32.6C316.328 35.1093 315.173 36.2805 313.681 37.7925L313.679 37.7947C312.794 38.6924 311.79 39.7105 310.3 41.2L318.8 53ZM292.7 23.7L292.7 23.7003C292.1 24.1002 291.5 24.5001 291 24.9C286 28.2 284.2 29.8 282.8 31.7C281.4 33.9 280.6 36 280.6 38.4C280.6 44.6 285.6 49.8 291.7 49.8C294.3 49.8 297.1 48.8 299.2 47.1C300.7 45.9 301.7 44.9 305.5 40.9L292.7 23.7ZM301 9.70001C301 6.30001 298.8 4.20001 295.3 4.20001C291.8 4.20001 289.4 6.39999 289.4 9.79999C289.4 12.2 290.1 13.8 292.2 16.5C292.5 17 293 17.7 293.7 18.6C299.8 14.7 301 13.2 301 9.70001ZM25.9 54.0984C33.6 54.0984 39.1 51.9985 45.3 46.6985L37.9 38.1985C35.2 41.1985 32 42.5984 27.6 42.5984C18.9 42.5984 12.8 36.2985 12.8 27.0984C12.8 18.1985 18.6 12.0984 26.9 12.0984C30.9 12.0984 34.4 13.5984 38 16.7984L46.1 8.29843C43 5.39843 41.3 4.19844 38.7 2.99844C35 1.29844 30.7 0.398438 26.4 0.398438C19.4 0.398438 13.8 2.29846 9.2 6.19846C3.4 11.1985 0 18.9984 0 27.3984C0 34.4984 2.6 41.3984 7 46.2984C11.7 51.4984 18 54.0984 25.9 54.0984ZM450.8 1.29919V53.0992H438.2L419.3 23.5992V53.0992H406.7V3.69922C406.7 2.39922 407.8 1.29919 409.1 1.29919H419.3L438.2 30.3992V3.59921C438.2 2.29921 439.3 1.19922 440.6 1.19922H450.8V1.29919ZM101 3.70081C101 2.40081 102.1 1.30078 103.4 1.30078H118.7C131 1.30078 138 7.50078 138 18.3008C138 29.2008 130.8 36.2008 119.5 36.2008H113.5V53.0008H100.9V3.70081H101ZM117 25.9008C122.2 25.9008 125.2 23.3008 125.2 18.8008C125.2 14.5008 122.3 11.7008 117.8 11.7008H113.5V26.0008C113.5 25.9008 117 25.9008 117 25.9008ZM346.9 54.0984C354.6 54.0984 360.1 51.9985 366.3 46.6985L359 38.1985C356.3 41.1985 353.1 42.5984 348.7 42.5984C340 42.5984 333.9 36.2985 333.9 27.0984C333.9 18.1985 339.6 12.0984 347.9 12.0984C351.9 12.0984 355.4 13.5984 359 16.7984L367.1 8.29843C364 5.39843 362.3 4.19844 359.7 2.99844C356 1.29844 351.7 0.398438 347.4 0.398438C340.4 0.398438 334.8 2.29846 330.2 6.19846C324.4 11.1985 321 18.9984 321 27.3984C321 34.4984 323.6 41.3984 328 46.2984C332.7 51.4984 339 54.0984 346.9 54.0984ZM494.5 3.70081C494.5 2.40081 495.6 1.30078 496.9 1.30078H511.3C518.1 1.30078 523.1 2.50081 526.5 5.20081C530.1 8.00081 532.1 12.7008 532.1 18.3008C532.1 26.1008 528.8 31.4008 522.1 34.1008L533.5 53.1008H518.4L507.1 33.1008V53.1008H494.5V3.70081ZM511.1 26.0008C516.3 26.0008 519.3 23.4008 519.3 18.9008C519.3 14.6008 516.4 11.7008 511.8 11.7008H507V26.0008H511.1ZM579.9 54.0984C587.6 54.0984 593.1 51.9985 599.3 46.6985L592 38.1985C589.3 41.1985 586.1 42.5984 581.7 42.5984C573 42.5984 566.9 36.2985 566.9 27.0984C566.9 18.1985 572.6 12.0984 580.9 12.0984C584.9 12.0984 588.4 13.5984 592 16.7984L600.1 8.29843C597 5.39843 595.3 4.19844 592.7 2.99844C589 1.29844 584.7 0.398438 580.4 0.398438C573.4 0.398438 567.8 2.29846 563.2 6.19846C557.4 11.1985 554 18.9984 554 27.3984C554 34.4984 556.6 41.3984 561 46.2984C565.7 51.4984 572 54.0984 579.9 54.0984ZM144 1.30078C142.7 1.30078 141.6 2.40081 141.6 3.70081V53.1008H154.2V1.30078H144ZM536.9 3.70081C536.9 2.40081 538 1.30078 539.3 1.30078H549.5V53.1008H536.9V3.70081ZM246.6 1.30078C245.3 1.30078 244.2 2.40081 244.2 3.70081V53.1008H273.7V42.9008H256.9V1.30078H246.6ZM158.4 3.70081C158.4 2.40081 159.5 1.30078 160.8 1.30078H194.9V11.5008H183V53.1008H170.4V11.5008H158.4V3.70081ZM456.2 1.30078C454.9 1.30078 453.8 2.40081 453.8 3.70081V11.5008H465.8V53.1008H478.4V11.5008H490.3V1.30078H456.2ZM370.7 3.69922C370.7 2.39922 371.8 1.29919 373.1 1.29919L400.4 1.19922V11.3992H383.3V21.9992H400.4V32.1992H383.3V42.8992H400.4V53.0992H370.7V3.69922ZM240.2 53.0984H226.4L224.1 45.5984H205.8L203.5 53.0984H190.1C190.1 53.0984 206.4 3.49844 206.8 2.49844C207.2 1.39844 208.4 1.39844 208.4 1.39844H222C222 1.39844 223.2 1.49844 223.6 2.49844L240.2 53.0984ZM208.9 35.4984H221L214.9 16.1985L208.9 35.4984ZM83.1 53.0984H96.9L80.3 2.49844C79.9 1.49844 78.7 1.39844 78.7 1.39844H65.1C65.1 1.39844 63.9 1.39844 63.5 2.49844C63.1 3.49844 46.8 53.0984 46.8 53.0984H60.2L62.5 45.5984H80.8L83.1 53.0984ZM77.7 35.4984H65.6L71.6 16.1985L77.7 35.4984Z" f="black"></path>
</svg>