<svg class="w-32 h-10 | lg:w-36 lg:h-14 text-gray-600 fill-current 4xl:w-40 4xl:h-16 dark:text-white" width="924" height="391" xmlns="http://www.w3.org/2000/svg" viewBox="0 0 924 391" f="none">
<path fill-rule="evenodd" clip-rule="evenodd" d="M0.279999 0V286.53H922.79V0H0.279999ZM653.84 85.02H713.07L714.77 100.89H712.79C711.09 90.69 708.82 89.55 704.29 89.55H688.42V146.8C688.42 153.04 690.4 155.3 697.49 155.3H700.04V157.57H666.88V155.3H669.43C676.52 155.3 678.5 153.03 678.5 146.8V89.55H662.63C658.1 89.55 656.11 90.68 654.41 100.89H652.43L653.84 85.02ZM602.82 101.46C602.82 91.82 612.17 83.6 624.93 83.6C633.15 83.6 642.5 86.43 646.75 88.42L648.45 100.89H646.47C642.79 92.67 634.85 87 626.06 87C617.56 87 611.89 90.97 611.89 97.49C611.89 105.186 620.647 110.086 630.021 115.331C640.671 121.289 652.117 127.694 652.42 139.15C652.42 150.2 641.65 159.84 626.91 159.84C619.82 159.84 611.04 157.57 604.52 155.87L601.97 138.58H604.24C606.79 149.92 615.86 155.87 625.78 155.87C634 155.87 643.07 151.9 643.07 142.83C643.07 134.863 633.92 129.662 624.345 124.22C613.838 118.249 602.82 111.987 602.82 101.46ZM527.43 154.74C538.48 154.46 539.33 153.04 539.33 144.54V83.61C539.33 75.11 538.48 73.41 527.43 73.41V70.86H593.75L594.88 88.15H592.33V87.87C590.63 76.25 586.95 75.4 582.13 75.4H550.95V109.41H575.32C580.42 109.41 582.69 108.84 583.54 100.62H586.09V124.14H583.54C582.47 114.747 580.127 114.759 574.821 114.787C574.523 114.788 574.216 114.79 573.9 114.79H550.94V144.55C550.94 151.07 553.77 152.2 559.16 152.2H580.13C589.77 152.2 592.88 150.22 596.28 138.31H598.83L596.56 157.3H527.41V154.74H527.43ZM342.93 73.12C332.44 73.12 331.88 75.1 331.88 80.49V158.43H328.2L263.3 82.76V142.84C263.3 153.04 263.87 155.03 275.77 155.03V157.58H218.8V155.03H220.78C228.72 155.03 231.55 154.18 231.55 150.21C231.55 148.06 230.788 146.171 230.223 144.77L230.13 144.54L221.06 122.72H183.94L176.29 141.14C175.16 143.69 173.46 147.94 173.46 149.93C173.46 153.61 177.14 155.03 184.8 155.03H185.37V157.58H131.52V155.03C138.04 155.03 144.56 153.05 143.99 145.68L140.02 83.05H139.74L108 157.59H104.88L72.29 83.05H72.01L68.33 145.97C67.76 153.34 73.15 154.76 79.38 155.04V157.59H50.19V155.04C60.39 155.04 61.81 152.77 62.38 140.02L66.06 80.5C66.06 74.83 64.36 73.13 53.87 73.13V70.58H78.53L109.42 141.15L140.03 70.58H163.55V73.13C153.06 73.13 151.36 75.11 151.36 80.5L155.61 142C156.18 151.35 157.31 154.47 160.99 154.47C164.045 154.47 164.923 152.572 170.009 141.585L170.009 141.585L170.34 140.87L200.38 70.58H210.3L242.89 145.68C243.021 145.961 243.151 146.242 243.28 146.522C245.104 150.474 246.814 154.18 250.26 154.18C255.08 154.18 257.06 150.5 257.06 145.11V76.52C253.66 74.25 251.11 73.12 246.29 73.12V70.57H267.26L325.64 138.87V83.32C325.64 74.82 324.79 73.4 313.74 73.12V70.57H342.93V73.12ZM420.59 150.78C419.607 151.255 418.644 151.738 417.683 152.22C410.606 155.769 403.604 159.28 389.13 159.28C360.79 159.28 343.78 140.57 343.78 114.78C343.78 88.14 361.07 68.58 390.26 68.58C404.684 68.58 415.307 73.1958 421.865 76.0455L422.29 76.23L423.42 93.52H420.87C416.34 80.48 406.7 71.98 391.4 71.98C368.16 71.98 356.54 90.12 356.54 113.36C356.54 138.58 371.84 155.59 393.1 155.59C399.34 155.59 415.49 151.34 424.84 134.33H427.39L420.59 150.78ZM451.48 115.07V144.54C451.48 153.04 452.33 154.46 463.38 154.74V157.29H428.8V154.74C439.29 154.74 439.85 153.04 439.85 147.37V80.48C439.85 75.1 439.28 73.11 428.8 73.11V70.56H463.38V73.11C452.33 73.39 451.48 74.81 451.48 83.31V109.38H502.78V82.17C502.78 74.8 501.36 73.38 490.88 73.1V70.55H525.46V73.1C514.97 73.1 514.41 74.8 514.41 80.47V147.36C514.41 153.03 514.98 154.73 525.46 154.73V157.28H490.88V154.73C501.37 154.45 502.78 153.03 502.78 145.66V115.05H451.48V115.07ZM559.18 243.17H528.29V240.9C538.78 240.9 539.34 239.2 539.34 233.53V181.95C535.66 185.07 529.14 189.04 524.89 191.02L524.04 189.32C530.84 185.07 540.48 176.57 543.31 172.88H547.28V231.83C547.28 238.92 548.7 240.33 559.18 240.62V243.17ZM586.67 244.87C573.63 244.87 563.15 236.65 563.15 226.73C563.15 219.08 569.1 212.56 581.01 208.31C569.67 203.78 564.01 198.11 564.01 190.74C564.01 181.1 574.21 172.88 586.12 172.88C598.02 172.88 607.94 179.97 607.94 188.75C608.22 195.55 602.84 200.94 592.07 204.9C604.82 210 610.49 215.67 610.49 224.46C610.47 236.08 599.99 244.87 586.67 244.87ZM658.94 236.65L658.09 243.45H614.16V240.33C614.526 239.965 615.383 239.24 616.598 238.211L616.6 238.21C624.8 231.276 649.3 210.557 649.3 193.28C649.3 185.06 643.06 178.54 634.85 178.54C627.2 178.54 620.11 184.49 617.56 193.56H615.86C617.28 180.81 626.35 172.3 638.25 172.3C649.87 172.3 658.37 180.8 658.37 191.86C658.37 206.549 641.961 220.582 628.563 232.04C626.711 233.624 624.916 235.159 623.23 236.64H649.3C654.97 236.64 656.95 234.94 658.37 228.14H660.35L658.94 236.65ZM709.09 223.9H700.03V243.74H692.09V223.9H661.48V223.62V221.07L696.62 173.17H700.02V218.23H709.09V223.9ZM779.39 157.01H710.24V154.46C721.29 154.18 722.14 152.76 722.14 144.26V83.33C722.14 74.83 721.29 73.41 710.24 73.13V70.58H776.56L777.69 87.87V88.15H775.14C773.44 76.53 769.76 75.68 764.94 75.68H733.76V109.69H758.13C763.23 109.69 765.78 109.12 766.35 100.9H768.9V124.42H766.35C765.28 115.025 762.676 115.039 757.586 115.067C757.458 115.068 757.329 115.068 757.198 115.069C757.037 115.07 756.875 115.07 756.71 115.07H733.75V144.26C733.75 150.78 736.87 151.91 741.97 151.91H762.94C772.58 151.91 775.69 149.93 779.09 138.02H781.64L779.39 157.01ZM888.79 157.58C866.307 158.623 861.911 154.362 851.353 144.133L851.352 144.132C850.466 143.273 849.537 142.373 848.55 141.43C847.315 140.333 845.898 138.953 844.305 137.403L844.305 137.403L844.304 137.402C839.319 132.55 832.622 126.031 824.46 121.31C821.06 121.59 818.79 121.59 815.11 121.59C811.99 121.59 810.29 121.59 808.02 121.31V144.55C808.02 153.05 811.42 155.04 819.36 155.04H822.48V157.59H782.8V155.04H785.07C793.57 155.04 796.41 152.77 796.41 143.42V84.75C796.41 75.96 794.14 73.41 785.92 73.41H782.8V70.86C784.94 70.86 789.741 70.5919 794.376 70.3332C796.5 70.2146 798.588 70.098 800.37 70.01C806.04 69.44 808.87 69.44 817.94 69.44C844.01 69.44 855.63 79.93 855.63 94.38C855.63 104.87 848.54 113.65 836.92 117.05C837.456 117.467 837.983 117.875 838.504 118.279C842.939 121.714 846.956 124.824 852.79 130.65L863.84 141.14C872.06 149.64 877.73 154.18 888.78 155.03V157.58H888.79ZM807.44 72.8308C810 72.5508 811.7 72.5508 814.53 72.5508C836.07 72.5508 842.02 82.1908 842.02 95.2208C842.3 111.941 831.82 117.891 816.23 117.891C813.11 117.891 810.84 117.891 807.44 117.611V72.8308ZM218.51 117.05L202.64 79.0703L186.77 117.05H218.51ZM583.27 209.16C575.05 213.13 569.95 219.08 569.95 226.16C569.95 235.51 577.32 241.75 586.67 241.75C595.74 241.75 603.39 235.8 603.39 227.3C603.39 219.93 597.44 214.83 583.27 209.16ZM586.1 175.148C594.6 175.148 601.4 180.248 601.4 188.188C601.4 194.418 596.59 199.238 589.78 203.208C573.91 196.968 570.51 193.008 570.51 186.768C570.51 179.968 577.6 175.148 586.1 175.148ZM692.1 218.231V183.941L667.16 218.231H692.1ZM21.26 370.698V323.938H36.84V318.838H0V323.938H15.59V370.698H21.26ZM68.3 346.038V370.698L68.29 371.268H74.24V344.628C74.24 337.818 71.69 332.438 62.9 332.438C56.39 332.438 51.57 335.838 49.3 341.508H49.02C49.31 339.528 49.59 336.408 49.59 333.858V315.148H43.92V370.978H49.59V352.558C49.59 343.488 54.41 336.688 61.21 336.688C66.6 336.688 68.3 340.088 68.3 346.038ZM89 346.328C90.13 340.378 93.82 336.408 99.2 336.408C105.15 336.408 108.55 340.378 108.27 346.328H89ZM88.71 350.578H114.22C114.5 349.448 114.5 348.308 114.5 347.458C114.5 339.238 110.25 331.868 99.76 331.868C89.28 331.868 83.04 340.368 83.04 351.708C83.04 365.028 88.99 371.268 100.61 371.268C105.14 371.268 109.68 370.418 113.08 368.998L112.51 364.178C109.68 365.598 105.43 366.728 101.46 366.728C92.96 366.728 88.43 361.918 88.71 350.578ZM138.87 353.408C138.87 362.198 141.71 371.268 157.86 371.268C171.47 371.268 178.27 364.468 178.26 350.858V318.828H172.59V351.418C172.59 362.468 168.06 366.438 158.42 366.438C147.37 366.438 144.82 360.208 144.82 352.838V318.828H138.87V353.408ZM213.98 346.038V370.698L213.97 370.978H219.92V344.338C219.92 337.528 217.37 332.148 208.58 332.148C202.07 332.148 197.25 336.118 194.98 341.498H194.7C194.99 339.238 195.27 335.548 195.27 332.998H189.6V370.978H195.27V352.558C195.27 343.488 200.09 336.688 206.89 336.688C212.28 336.688 213.98 340.088 213.98 346.038ZM230.7 332.728V370.698V370.708H236.37V332.728H230.7ZM229.56 321.668C229.56 323.938 231.26 325.638 233.53 325.638C235.8 325.638 237.79 323.938 237.5 321.668C237.5 319.398 235.8 317.698 233.53 317.698C231.26 317.698 229.56 319.398 229.56 321.668ZM257.06 370.698H263.01L277.76 332.718H271.24L262.17 357.938C261.829 359.321 261.38 360.705 260.952 362.023C260.678 362.867 260.413 363.685 260.19 364.458C259.765 363.323 259.41 362.191 259.055 361.058C258.7 359.926 258.345 358.793 257.92 357.658L249.13 332.718H242.61L257.06 370.698ZM285.4 346.328C286.53 340.378 290.22 336.408 295.6 336.408C301.55 336.408 304.95 340.378 304.67 346.328H285.4ZM285.11 350.578H310.62C310.91 349.448 310.91 348.308 310.9 347.458C310.9 339.238 306.64 331.868 296.16 331.868C285.68 331.868 279.44 340.368 279.44 351.708C279.44 365.028 285.39 371.268 297.01 371.268C301.54 371.268 306.08 370.418 309.48 368.998L308.91 364.178C306.08 365.598 301.83 366.728 297.86 366.728C289.36 366.728 284.83 361.918 285.11 350.578ZM325.64 355.408C325.64 342.648 329.61 336.128 338.11 337.548L338.39 331.878C330.17 331.028 326.21 336.698 324.79 342.368C325.36 338.968 325.64 335.278 325.64 332.728H319.97V370.708H325.64V355.408ZM343.49 370.418C345.76 370.988 348.6 371.268 351.43 371.268C361.35 371.268 367.31 366.168 367.58 359.078C367.58 351.975 362.019 350.259 356.961 348.699C352.741 347.397 348.87 346.204 348.87 342.078C348.87 338.398 351.42 336.128 357.09 336.128C359.65 336.128 362.48 336.698 365.03 337.548L365.31 332.448C363.04 331.878 360.21 331.598 357.94 331.598C348.3 331.598 343.2 336.408 343.2 342.648C343.2 350.134 348.781 351.782 353.8 353.263C357.898 354.472 361.62 355.571 361.62 359.648C361.62 363.618 357.65 366.168 352.27 366.168C349.15 366.168 346.32 365.608 343.77 365.038L343.49 370.418ZM376.09 332.728V370.698V370.708H381.76V332.728H376.09ZM375.24 321.668C375.24 323.938 376.94 325.638 379.21 325.638C381.19 325.638 383.18 323.938 383.18 321.668C383.18 319.398 381.48 317.698 379.21 317.698C376.94 317.698 375.24 319.398 375.24 321.668ZM395.65 359.928C395.65 367.868 397.92 371.268 405.57 371.268C408.12 371.268 410.67 370.988 412.37 370.418V365.318C410.96 365.608 408.97 365.888 406.99 365.888C402.45 365.888 401.32 364.188 401.32 357.388V336.978H412.37V332.448H401.32V318.278L395.65 319.978V332.728H387.43V337.258H395.65V359.928ZM417.47 390.258C425.68 390.258 429.09 386.288 433.62 374.668L449.51 332.738H443.27L436.47 352.008C434.77 356.538 433.07 361.078 432.5 363.628L432.433 363.405C431.605 360.649 430.77 357.869 429.67 354.558L421.73 332.738H415.21L429.66 370.718L427.96 375.248C424.84 383.178 422.57 385.448 418.04 385.448C416.34 385.448 414.64 385.168 413.22 384.598L412.65 389.978C413.36 389.978 414.21 390.048 415.06 390.118C415.91 390.188 416.76 390.258 417.47 390.258ZM473.3 351.428C473.3 341.218 478.97 336.688 484.92 336.688C492.29 336.688 496.26 342.078 496.26 351.428C496.26 361.918 490.87 366.448 484.92 366.448C477.55 366.448 473.3 361.068 473.3 351.428ZM467.35 351.708C467.35 365.028 473.87 371.268 484.07 371.268C495.12 371.268 502.21 362.488 502.49 350.858C502.49 336.968 494.84 331.868 485.49 331.868C474.15 331.868 467.35 340.938 467.35 351.708ZM527.15 319.118C529.13 319.118 531.12 319.398 533.1 319.968L533.67 315.148C531.68 314.858 529.7 314.578 527.43 314.578C518.36 314.578 512.98 319.398 512.98 330.168V332.718H504.76V337.248H512.98V370.688H518.65V337.248H529.99V332.718H518.65V329.888C518.65 322.518 521.2 319.118 527.15 319.118ZM597.72 338.668L602.25 370.698V370.128H608.2L600.55 318.268H592.9L580.71 353.698C579.456 356.98 578.866 359.36 578.154 362.238C578.065 362.596 577.974 362.962 577.88 363.338H577.6C577.04 360.508 576.19 357.098 574.77 353.418L562.87 318.558H555.5L548.13 370.418H554.08L557.76 339.238C557.952 337.426 558.144 335.773 558.325 334.216C558.681 331.151 558.994 328.456 559.18 325.638C559.239 325.854 559.299 326.075 559.361 326.302C560.188 329.337 561.259 333.264 562.58 336.688L574.2 370.698H581L593.19 334.418C594.32 330.728 595.17 327.898 595.74 325.628H596.02C596.245 327.915 596.659 330.929 597.255 335.274C597.4 336.325 597.555 337.453 597.72 338.668ZM620.96 361.068C620.96 357.378 623.8 352.848 638.25 352.848V353.418C638.25 359.938 634 366.738 627.2 366.738C623.51 366.738 620.96 364.468 620.96 361.068ZM638.81 362.758C638.53 364.748 638.53 367.868 638.53 370.698V370.708H644.18C643.9 367.308 643.9 363.048 643.9 359.368V344.348C643.9 336.978 640.79 331.878 630.3 331.878C624.92 331.878 620.66 333.008 616.98 334.708L617.55 339.808C620.95 337.538 625.49 336.408 629.17 336.408C635.98 336.408 637.96 339.808 637.96 345.478V348.598C622.94 348.598 614.72 354.258 614.72 362.198C614.72 368.428 619.26 371.548 625.21 371.548C631.73 371.548 636.83 367.578 638.53 362.758H638.81ZM679.63 346.038V370.698L679.62 370.978H685.57V344.338C685.57 337.528 683.02 332.148 674.23 332.148C667.72 332.148 662.9 336.118 660.63 341.498H660.35C660.64 339.238 660.92 335.548 660.92 332.998H655.25V370.978H660.92V352.558C660.92 343.488 665.74 336.688 672.54 336.688C677.93 336.688 679.63 340.088 679.63 346.038ZM694.08 353.128C694.08 367.588 702.02 371.268 710.52 371.268C715.34 371.268 719.3 370.138 722.14 369.278L721.57 364.178C719.02 365.598 715.33 366.448 711.93 366.448C702.86 366.448 700.31 360.218 700.31 352.278C700.31 342.928 704.28 336.978 712.5 336.978C715.91 336.978 718.74 337.548 721.29 338.678L721.86 333.578C719.03 332.728 715.91 332.158 712.79 332.158C700.32 332.158 694.08 340.658 694.08 353.128ZM754.45 346.038V370.698L754.44 371.268H760.39V344.628C760.39 337.818 757.84 332.438 749.05 332.438C742.54 332.438 737.72 335.838 735.45 341.508H735.17C735.46 339.528 735.74 336.408 735.74 333.858V315.148H730.07V370.978H735.74V352.558C735.74 343.488 740.56 336.688 747.36 336.688C752.75 336.688 754.45 340.088 754.45 346.038ZM775.14 346.328C776.27 340.378 779.96 336.408 785.34 336.408C791.29 336.408 794.69 340.378 794.41 346.328H775.14ZM774.85 350.578H800.36C800.64 349.448 800.64 348.309 800.64 347.459V347.458C800.64 339.238 796.39 331.868 785.9 331.868C775.42 331.868 769.18 340.368 769.18 351.708C769.18 365.028 775.13 371.268 786.75 371.268C791.28 371.268 795.82 370.418 799.22 368.998L798.65 364.178C795.82 365.598 791.57 366.728 787.6 366.728C779.1 366.728 774.57 361.918 774.85 350.578ZM807.72 370.418C809.99 370.988 812.83 371.268 815.66 371.268C825.58 371.268 831.54 366.168 831.81 359.078C831.81 351.975 826.249 350.259 821.191 348.699C816.971 347.397 813.1 346.204 813.1 342.078C813.1 338.398 815.65 336.128 821.32 336.128C823.88 336.128 826.71 336.698 829.26 337.548L829.54 332.448C827.27 331.878 824.44 331.598 822.17 331.598C812.53 331.598 807.43 336.408 807.43 342.648C807.43 350.134 813.011 351.782 818.03 353.263C822.128 354.472 825.85 355.571 825.85 359.648C825.85 363.618 821.88 366.168 816.5 366.168C813.38 366.168 810.55 365.608 808 365.038L807.72 370.418ZM842.59 359.928C842.59 367.868 844.86 371.268 852.51 371.268C854.78 371.268 857.61 370.988 859.31 370.418V365.318C857.9 365.608 855.91 365.888 853.93 365.888C849.39 365.888 848.26 364.188 848.26 357.388V336.978H859.31V332.448H848.26V318.278L842.59 319.978V332.728H834.37V337.258H842.59V359.928ZM870.65 346.328C871.78 340.378 875.47 336.408 880.85 336.408C886.52 336.408 890.2 340.378 889.92 346.328H870.65ZM870.36 350.578H895.87C895.87 349.448 895.87 348.308 896.15 347.458C896.15 339.238 891.9 331.868 881.41 331.868C870.93 331.868 864.69 340.368 864.69 351.708C864.69 365.028 870.64 371.268 882.26 371.268C886.79 371.268 891.33 370.418 894.73 368.998L894.16 364.178C891.33 365.598 887.08 366.728 883.11 366.728C874.61 366.728 870.08 361.918 870.36 350.578ZM910.32 355.408C910.32 342.648 914.29 336.128 922.79 337.548L923.07 331.878C914.85 331.028 910.89 336.698 909.47 342.368C910.04 338.968 910.32 335.278 910.32 332.728H904.65V370.708H910.32V355.408Z" f="black"></path>
</svg>