<svg class="w-32 h-10 | lg:w-36 lg:h-14 text-gray-600 fill-current 4xl:w-40 4xl:h-16 dark:text-white" width="1015" height="160" xmlns="http://www.w3.org/2000/svg" viewBox="0 0 1015 160" f="none">
<path d="M37.0573 159.074C9.19133 159.074 1.26442 135.707 1.26442 111.707H26.1394C26.1394 118.345 26.9906 135.488 38.1515 135.488C46.5161 135.488 50.7957 127.974 50.7957 120.704C50.7957 93.6888 0 86.6129 0 41.8232C0 19.5256 12.012 0.0242746 36.0117 0.0242746C63.6588 0.0242746 71.1723 23.3918 71.5857 46.7593H46.7107C46.7107 40.1211 46.0785 23.6106 35.3551 23.6106C27.647 23.6106 24.8508 31.0999 24.8508 37.5436C24.8508 63.2697 75.6465 72.9231 75.6465 116.862C75.6465 140.424 61.908 159.074 37.0573 159.074ZM86.1509 156.059V3.01518H149.372V26.6015H114.017V65.8229H140.156V90.698H114.017V132.497H150.88V156.083H86.1509V156.059ZM162.016 156.059V3.01518H189.882V132.473H225.675V156.059H162.016ZM262.538 26.6015V67.5493H288.045V92.4244H262.538V156.083H234.672V3.01518H297.042V26.6015H262.538ZM356.008 156.059L342.926 90.2603H336.288V156.059H308.203V3.01518H339.716C368.871 3.01518 383.874 16.7293 383.874 46.5161C383.874 60.0114 380.226 76.303 367.582 83.8166L384.093 156.059H356.008ZM340.567 25.3128H336.288V67.9626H341.856C352.993 67.9626 356.008 55.7561 356.008 46.7349C356.008 35.8172 353.649 25.3128 340.567 25.3128ZM396.931 156.059V3.01518H425.016V156.059H396.931ZM469.806 156.059H441.089V3.01518H465.307C515.471 3.01518 516.76 40.0968 516.76 79.537C516.76 115.135 516.76 156.059 469.806 156.059ZM468.955 132.497C490.596 132.497 487.605 109.129 487.605 82.3333C487.605 58.747 493.392 26.6015 468.955 26.6015V132.497ZM604.637 156.059H592.844L588.978 145.992C584.041 153.287 575.896 159.074 566.68 159.074C528.091 159.074 527.021 108.278 527.021 80.6312C527.021 54.4917 530.887 0.0486205 566.68 0.0486205C601.622 0.0486205 603.543 30.492 603.543 57.7014H578.473L578.692 48.0481C578.692 41.4098 577.841 23.6106 568.187 23.6106C554.692 23.6106 556.175 70.3456 556.175 80.8501C556.175 103.561 554.668 135.512 569.452 135.512C581.464 135.512 581.026 114.941 580.807 107.014H570.522V84.7163H604.612V156.059H604.637ZM619.421 156.059V3.01518H682.642V26.6015H647.262V65.8229H673.232V90.698H647.287V132.497H684.15V156.083H619.421V156.059ZM725.316 159.074C697.45 159.074 689.305 135.707 689.523 111.707H714.398C714.398 120.071 715.25 135.488 726.411 135.488C734.775 135.488 738.836 127.974 738.836 120.704C738.836 93.6888 688.259 86.6129 688.259 41.8232C688.259 19.5256 700.271 0.0242746 724.271 0.0242746C751.918 0.0242746 759.212 23.3918 759.845 46.7593H734.751C734.751 41.191 735.821 23.6106 723.614 23.6106C715.906 23.6106 713.11 31.0999 713.11 37.5436C713.11 63.2697 763.905 72.9231 763.905 116.862C763.905 140.424 750.167 159.074 725.316 159.074ZM863.357 156.059C851.564 156.059 842.348 152.849 834.859 144.922C827.783 153.287 817.498 159.074 805.923 159.074C782.142 159.074 771.419 137.652 771.419 120.485C771.419 102.686 780.416 87.2694 793.717 72.4611C787.297 59.1604 782.142 47.8049 782.142 32.5832C782.142 12.8631 795.638 0 814.726 0C834.446 0 845.169 16.0727 845.169 31.9266C845.169 51.6467 835.734 59.5737 824.379 72.8745C827.175 80.5825 831.455 87.6585 835.321 94.9532C837.461 87.6585 838.75 80.5825 839.601 73.0933L861.023 77.8106C859.102 92.5946 855.868 107.379 849.448 121.117C853.315 127.123 858.032 129.701 865.084 131.184V156.059H863.357ZM861.631 133.98C854.141 132.059 849.424 127.755 845.777 121.336C851.783 108.254 855.211 94.5398 857.351 80.3881L842.567 77.1783C841.278 86.3941 838.92 94.9776 836.148 103.537C830.798 93.2511 824.355 83.3789 820.488 72.2422C831.625 59.1604 841.716 51.2334 841.716 31.951C841.716 17.5803 832.063 3.45284 814.701 3.45284C797.34 3.45284 785.547 14.8083 785.547 32.6075C785.547 48.0481 791.115 59.4035 797.559 73.1176C785.547 86.4184 774.848 101.616 774.848 120.485C774.848 136.776 784.695 155.645 805.923 155.645C818.349 155.645 827.564 149.007 834.64 139.573C842.348 148.57 849.643 152.436 861.655 152.655V133.98H861.631ZM824.987 126.904C822.19 131.184 817.692 135.901 811.905 135.901C801.182 135.901 795.832 121.117 795.832 112.315C795.832 102.88 799.261 97.5307 805.486 91.087L824.987 126.904ZM799.261 112.339C799.261 121.336 803.321 132.497 812.343 132.497C817.06 132.497 818.981 129.068 820.926 126.491L804.853 96.704C801.182 100.984 799.261 105.895 799.261 112.339ZM814.482 20.1578C822.19 20.1578 824.33 27.2337 824.33 33.8719C824.33 43.9387 818.324 51.0145 812.756 58.5281C809.327 50.6012 805.242 41.1667 805.242 32.5832C805.264 27.0392 807.188 20.1578 814.482 20.1578ZM821.121 33.8962C821.121 27.4768 818.981 23.6106 814.482 23.6106C810.422 23.6106 808.695 27.258 808.695 32.6075C808.695 38.3946 811.054 46.1027 813.412 52.1088C817.473 46.7593 821.121 40.9721 821.121 33.8962ZM917.144 58.3336C917.144 53.3975 917.995 26.407 908.779 26.407C897.642 26.407 898.907 73.1419 898.907 78.0537C898.907 124.789 902.968 132.716 908.341 132.716C919.478 132.716 918.846 104.631 918.846 97.555H945.204V99.2571C945.423 123.913 942.408 159.05 907.904 159.05C867.831 159.05 867.394 103.974 867.394 78.0294C867.394 54.0297 870.822 0 907.904 0C942.408 0 944.985 33.653 944.766 58.3093V60.0357H917.119V58.3336H917.144ZM941.581 56.6072C941.362 31.5376 937.934 3.45284 907.928 3.45284C874.907 3.45284 870.846 52.3276 870.846 78.0537C870.846 105.92 871.916 155.645 907.928 155.645C937.934 155.645 941.8 126.077 942.019 100.984H922.299C922.08 109.98 922.08 135.925 908.366 135.925C898.931 135.925 895.503 121.555 895.503 78.0537C895.503 67.3304 894.214 23.173 908.803 23.173C921.229 23.173 920.597 49.3125 920.597 56.6072H941.581ZM983.38 0.437655C1009.74 0.437655 1014.46 26.796 1014.46 47.8049C1014.46 68.5949 1009.74 94.9532 983.38 94.9532C957.022 94.9532 952.304 68.5949 952.304 47.8049C952.304 26.8203 957.022 0.437655 983.38 0.437655ZM988.948 125.421C979.1 125.421 974.797 116.837 967.502 116.837C963.636 116.837 960.207 119.196 957.654 122.406L953.374 116.181C958.943 107.403 966.651 99.8894 976.523 99.8894C986.371 99.8894 990.456 108.473 997.945 108.473C1001.81 108.473 1005.02 106.114 1007.6 102.904L1011.88 109.129C1006.53 117.689 998.602 125.421 988.948 125.421ZM983.38 91.549C1007.38 91.549 1011.03 66.4794 1011.03 47.8292C1011.03 28.9601 1007.38 3.89049 983.38 3.89049C959.161 3.89049 955.733 28.9601 955.733 47.8292C955.733 66.4551 959.161 91.549 983.38 91.549ZM1007.38 107.622C1004.8 110.199 1001.37 111.901 997.945 111.901C989.362 111.901 985.52 103.318 976.523 103.318C968.596 103.318 961.739 109.105 957.022 116.181L957.873 117.689C960.45 115.111 963.879 113.409 967.526 113.409C975.891 113.409 979.951 121.992 988.973 121.992C996.9 121.992 1003.76 115.986 1008.26 109.129L1007.38 107.622ZM991.745 47.8292C991.745 75.2574 988.754 79.5613 983.38 79.5613C978.663 79.5613 975.015 75.2817 975.015 47.8292C975.015 34.9662 975.453 27.0392 976.523 22.3219C978.03 16.7536 980.803 15.9025 983.38 15.9025C989.167 15.8812 991.745 22.9541 991.745 47.8292ZM983.38 76.1085C985.957 76.1085 988.316 73.3122 988.316 47.8049C988.316 39.0269 988.098 19.3067 983.38 19.3067C978.882 19.3067 978.444 29.179 978.444 47.8049C978.444 71.61 980.803 76.1085 983.38 76.1085Z" f="black"></path>
</svg>