<svg class="w-32 h-10 | lg:w-36 lg:h-14 text-gray-600 fill-current 4xl:w-40 4xl:h-16 dark:text-white" width="1705" height="111" xmlns="http://www.w3.org/2000/svg" viewBox="0 0 1705 111" f="none">
<path fill-rule="evenodd" clip-rule="evenodd" d="M113.457 48.293V108.309H101.02L98.1504 98.5586C92.9185 102.656 87.268 105.738 81.2289 107.832C75.1599 109.922 67.7456 111 58.9261 111C50.1066 111 42.6923 109.715 35.4872 107.172C28.2821 104.629 22.0637 100.953 16.8318 96.168C11.5999 91.3828 7.47415 85.5508 4.4845 78.6445C1.49484 71.7656 0 64.0234 0 55.5C0 46.9766 1.52472 39.2344 4.54428 32.3555C7.56381 25.4766 11.7494 19.6172 17.0709 14.832C22.3925 10.0469 28.6708 6.37109 35.8759 3.82812C43.0809 1.28516 50.8241 0 59.1354 0C71.1239 0 81.3186 2.15234 89.7495 6.39844C98.1803 10.6758 105.296 17.0156 111.185 25.4492L95.8782 34.2383C91.4236 28.6172 86.3412 24.4922 80.6609 21.8008C74.9806 19.1094 67.626 17.793 58.5674 17.793C52.5581 17.793 47.1768 18.6875 42.3933 20.4844C37.6099 22.2773 33.514 24.7891 30.1357 28.0508C26.7574 31.3086 24.1265 35.2539 22.3028 39.9219C20.4492 44.5859 19.5225 49.7891 19.5225 55.5312C19.5225 61.2695 20.4791 66.4453 22.3925 71.0195C24.3059 75.625 26.9667 79.5703 30.4048 82.8906C33.8429 86.2109 37.9387 88.7539 42.7222 90.5469C47.5056 92.3398 52.7375 93.2383 58.4777 93.2383C66.9982 93.2383 74.0537 92.2227 79.6743 90.1875C85.265 88.1523 90.2876 85.0156 94.7422 80.7969V65.3086L66.8188 64.1719V48.293H113.457ZM248.171 2.45312L293.135 108.281H272.656L265.391 91.625H193.251L185.986 108.281H165.118L211.428 2.45312H248.171ZM200.516 74.2188H257.529L235.345 19.8555H223.297L200.516 74.2188ZM423.574 5.41406C418.313 3.44141 412.632 2.45312 406.504 2.45312H344.229V108.25H363.751V83.7578H409.553L422.977 108.25H444.263L427.61 78.9766C434.247 75.7734 439.569 71.1719 443.605 65.1016C447.641 59.0586 449.644 51.8242 449.644 43.3906C449.644 37.2617 448.538 31.6992 446.296 26.6445C444.054 21.6211 441.004 17.3164 437.177 13.7266C433.351 10.168 428.806 7.38672 423.574 5.41406ZM405.636 65.9961H363.722V20.2461H405.636C412.901 20.2461 418.791 22.3086 423.335 26.375C427.85 30.4727 430.122 36.2734 430.122 43.4219C430.122 50.5664 427.85 56.1289 423.335 60.0781C418.791 64.0234 412.901 65.9961 405.636 65.9961ZM514.699 2.45312L551.83 62.5586H554.132L590.098 2.45312H612.281L561.965 81.875V108.281H542.832V81.875L492.516 2.45312H514.699ZM845.146 81.0977L774.918 2.45312H755.396V108.281H774.53V29.2461L844.906 108.281H864.668V2.45312H845.146V81.0977ZM1014.09 2.45312V19.8867H938.901V45.5117H1006.65V62.918H938.901V90.4883H1016.96V108.281H919.379V2.45312H1014.09ZM1124.68 90.668L1087.37 2.45312H1065.93L1112.42 108.281H1144.17L1190.87 2.45312H1169.64L1132.33 90.668H1124.68ZM1260.92 2.45312V108.281H1241.39V2.45312H1260.92ZM1335.33 90.875V2.45312H1315.81V108.281H1411.48V90.875H1335.33ZM1481.13 2.45312V90.875H1557.28V108.281H1461.61V2.45312H1481.13ZM1702.13 19.8867V2.45312H1607.42V108.281H1705V90.4883H1626.94V62.918H1694.69V45.5117H1626.94V19.8867H1702.13Z" f="black"></path>
</svg>