<svg class="w-3 h-3 fill-current text-white hidden || js-modal-video-volume-off-icon-426302" xmlns="http://www.w3.org/2000/svg" viewBox="0 0 640 512"><path d="M48.4 14.8L29.4.1 0 38l19 14.7 572.5 444.5 19 14.7 29.4-37.9-19-14.7-95.1-73.8C557 351.3 576 305.9 576 256c0-62.8-30.2-118.6-76.8-153.6l-28.8 38.4c35 26.3 57.6 68.1 57.6 115.2 0 38.8-15.3 74-40.3 99.9l-38.2-29.7c18.8-17.5 30.5-42.5 30.5-70.2 0-31.4-15.1-59.3-38.4-76.8l-28.8 38.4c11.7 8.8 19.2 22.7 19.2 38.4s-7.5 29.6-19.2 38.4l5.9 7.9-66.7-51.8V32h-48l-108.8 96.7L48.4 14.8zM352 373.3L81.2 160H32v192h128l144 128h48V373.3z"></path></svg>