<svg class="w-32 h-10 | lg:w-36 lg:h-14 text-gray-600 fill-current 4xl:w-40 4xl:h-16 dark:text-white" width="1186" height="135" xmlns="http://www.w3.org/2000/svg" viewBox="0 0 1186 135" f="none">
<path fill-rule="evenodd" clip-rule="evenodd" d="M603.544 69.7282C603.502 65.629 603.46 61.5295 603.46 57.431C603.74 57.431 604.02 57.431 604.28 57.441C604.28 53.3278 604.258 49.2145 604.236 45.1016V45.1008V45.1V45.0992V45.0984V45.0976V45.0968C604.184 35.3923 604.132 25.6892 604.37 15.991C604.58 7.22099 606.35 5.78099 614.76 4.18099C615.689 4.00348 616.524 3.36915 617.362 2.73311C617.751 2.43755 618.141 2.14162 618.54 1.89099C618.121 1.69845 617.701 1.45509 617.281 1.21156C616.37 0.683543 615.457 0.154673 614.54 0.140986C606.471 0.0332977 598.403 0.0439519 590.334 0.054606C587.913 0.0578028 585.492 0.0609995 583.07 0.0609995C582.458 0.0609995 581.844 0.0457367 581.229 0.0304648C579.674 -0.00814759 578.117 -0.0468179 576.59 0.16099C575.883 0.257191 575.232 0.783072 574.579 1.31035L574.578 1.31105V1.31111C574.281 1.55092 573.984 1.79098 573.68 1.99099C573.967 2.203 574.248 2.42304 574.529 2.64285L574.53 2.64309L574.53 2.64317C575.19 3.15936 575.848 3.67427 576.57 4.08099C576.924 4.28108 577.384 4.29434 577.847 4.30768C578.079 4.31434 578.311 4.32102 578.53 4.35099C586.73 5.44099 589 7.481 589.31 15.841C589.74 27.151 589.76 38.481 589.68 49.801C589.669 51.4298 589.659 53.0585 589.648 54.6873V54.6924C589.544 70.7118 589.44 86.7296 588.85 102.731C588.42 114.231 584.56 124.261 573.49 130.091C572.726 130.493 572.223 131.394 571.72 132.294L571.719 132.295C571.485 132.714 571.251 133.133 570.99 133.501C571.497 133.571 572.028 133.704 572.558 133.836C573.704 134.123 574.848 134.409 575.75 134.061C592.54 127.601 602.6 115.711 603.35 97.381C603.731 88.1733 603.637 78.9513 603.544 69.7282ZM53.1645 56.2134C55.593 56.2069 58.0217 56.2004 60.4504 56.2004C62.9392 56.1974 65.4288 56.2149 67.9178 56.2325C73.7595 56.2736 79.5972 56.3148 85.4104 56.0904C89.5004 55.9404 90.5404 57.4404 90.4604 61.2604C90.3461 66.883 90.3592 72.5057 90.3723 78.1284C90.3833 82.8357 90.3942 87.543 90.3304 92.2504C90.1804 103.81 88.4404 105.68 77.2804 107.71C76.4978 107.853 75.7985 108.455 75.0976 109.058C74.7685 109.341 74.4391 109.624 74.1004 109.86C74.4758 110.058 74.8491 110.307 75.2217 110.557C76.0205 111.091 76.8158 111.624 77.6204 111.63C90.4504 111.76 103.28 111.77 116.11 111.62C116.997 111.614 117.88 111.02 118.76 110.428C119.171 110.152 119.58 109.876 119.99 109.66C119.647 109.444 119.311 109.19 118.974 108.937L118.974 108.936L118.974 108.936L118.974 108.936L118.974 108.936L118.974 108.936L118.974 108.936L118.973 108.936L118.973 108.936L118.973 108.936L118.973 108.936C118.221 108.368 117.466 107.799 116.63 107.64C106.91 105.79 104.84 103.83 104.76 93.7404C104.55 68.5904 104.55 43.4304 104.72 18.2704C104.79 8.01037 106.89 6.07038 117.07 4.40038C117.863 4.27058 118.571 3.65073 119.279 3.03185C119.607 2.74482 119.935 2.458 120.27 2.22037C119.914 2.02342 119.557 1.77466 119.199 1.52545C118.411 0.977481 117.621 0.427256 116.83 0.420382C104.17 0.290382 91.5004 0.290376 78.8404 0.430376C78.0562 0.444014 77.2814 1.00632 76.5063 1.56878C76.1447 1.83118 75.7831 2.0936 75.4204 2.30037C75.7746 2.53651 76.1197 2.81848 76.4643 3.10013C77.1997 3.70108 77.9334 4.30058 78.7504 4.45038C87.9204 6.15038 89.9304 8.15038 90.2104 17.6204C90.3618 22.6662 90.3583 27.712 90.3547 32.7578C90.3516 37.042 90.3486 41.3262 90.4404 45.6104C90.5104 48.8304 89.0904 49.5404 86.2404 49.5304C69.0804 49.4804 51.9204 49.4804 34.7604 49.6104C31.6004 49.6304 30.7004 48.3204 30.7704 45.4304C30.8542 41.6251 30.8916 37.8184 30.929 34.0119V34.0119V34.0119V34.0118V34.0118V34.0118V34.0117V34.0117V34.0117V34.0116L30.929 34.0111V34.0111V34.0111V34.011V34.011V34.011V34.0109V34.0109V34.0109V34.0108V34.0108C30.9897 27.8244 31.0504 21.6386 31.3104 15.4604C31.6404 7.73038 33.7904 5.85037 41.5604 4.53037C42.5084 4.36551 43.3856 3.78541 44.2633 3.20496L44.2633 3.20492C44.6633 2.94039 45.0634 2.67578 45.4704 2.45038C45.0266 2.22688 44.5837 1.94591 44.1412 1.66518C43.178 1.05408 42.2166 0.444081 41.2504 0.430376C31.4713 0.319341 21.6923 0.352979 11.9132 0.386616L11.9132 0.386616L11.9131 0.386616L11.9131 0.386617L11.9131 0.386617L11.9131 0.386617L11.9131 0.386617L11.913 0.386617L11.913 0.386617L11.913 0.386617L11.913 0.386617C9.36212 0.395391 6.81126 0.404166 4.2604 0.410372C4.06376 0.412741 3.86094 0.406691 3.65674 0.4006C2.99903 0.38098 2.32694 0.360932 1.80041 0.620379C1.05041 0.990379 0.300401 1.75038 0.0104012 2.51038C-0.109599 2.83038 0.830423 3.84037 1.47042 4.11037C2.12445 4.38227 2.87028 4.44356 3.61268 4.50457C3.88053 4.52658 4.14794 4.54855 4.41043 4.58037C13.5804 5.66037 16.0604 7.56037 16.1804 16.7504C16.5304 43.0604 16.5304 69.3804 16.2404 95.7004C16.1504 104.42 13.9204 106.08 5.25042 107.66C4.33315 107.83 3.49435 108.411 2.65562 108.992L2.65557 108.992C2.25991 109.266 1.86427 109.54 1.46041 109.77C1.92306 109.976 2.38571 110.238 2.84867 110.499C3.84672 111.062 4.84624 111.627 5.85043 111.64C17.8504 111.8 29.8504 111.8 41.8404 111.64C42.8306 111.627 43.8115 111.03 44.7926 110.433C45.2482 110.156 45.7038 109.879 46.1604 109.66C45.7493 109.439 45.3462 109.18 44.9436 108.921C44.0728 108.36 43.204 107.801 42.2604 107.63C33.6004 106.06 31.6104 104.28 31.3104 95.6504C31.0615 88.4744 31.0006 81.2911 30.9396 74.1094C30.9002 69.4616 30.8608 64.8144 30.7704 60.1704C30.7104 57.1004 32.0004 56.1204 34.9604 56.1604C41.0246 56.2461 47.0938 56.2298 53.1645 56.2134ZM892.377 119.165C888.523 116.737 884.63 114.283 880.67 111.79C882.366 110.724 883.975 109.776 885.502 108.876L885.504 108.874C888.633 107.03 891.418 105.389 893.89 103.36C908.34 91.4999 911.96 68.1799 902.21 51.4399C892.95 35.5399 871.8 28.5399 853.15 35.2199C835.15 41.6599 825.03 58.3199 826.76 78.6499C828.21 95.5999 841.43 109.13 859.34 112.28C861.85 112.73 864.3 114.03 866.57 115.3C869.283 116.815 871.95 118.436 874.616 120.056C879.921 123.279 885.223 126.501 890.88 128.89C895.095 130.669 899.808 131.283 904.519 131.898C906.615 132.171 908.71 132.444 910.76 132.82C910.793 132.689 910.825 132.559 910.857 132.428C910.899 132.258 910.94 132.088 910.981 131.917C911.01 131.797 911.039 131.676 911.069 131.555L911.112 131.375L911.158 131.19L911.2 131.02C905.006 127.123 898.816 123.223 892.519 119.255L892.432 119.2L892.377 119.165ZM883.63 46.9299C890.33 55.4499 892.16 65.5299 892.58 79.4299C892.383 80.2452 892.185 81.284 891.956 82.4777L891.956 82.4812L891.955 82.4829L891.955 82.4838C891.279 86.0194 890.343 90.9118 888.43 95.3799C887.235 98.1884 884.788 100.471 882.351 102.746C881.343 103.686 880.336 104.626 879.42 105.6C879.027 106.021 878.344 106.215 877.742 106.385L877.62 106.42C877.38 106.488 877.118 106.581 876.851 106.677C876.062 106.957 875.229 107.254 874.78 106.97C872.064 105.279 869.04 105.819 866.024 106.358C862.334 107.017 858.657 107.673 855.57 104.24C854.685 103.255 853.711 102.315 852.738 101.375C850.68 99.3871 848.623 97.4006 847.4 94.9899C840.27 80.9199 839.35 66.1199 845.48 51.5499C852.42 35.0799 872.55 32.8399 883.63 46.9299ZM390.32 75.0701C392.939 78.4967 395.255 82.0946 397.547 85.6573C403.203 94.4466 408.721 103.022 418.32 108.28C418.875 108.588 419.219 109.291 419.561 109.989L419.561 109.99C419.718 110.31 419.874 110.63 420.05 110.91C419.749 111.055 419.448 111.235 419.147 111.415L419.147 111.415C418.49 111.809 417.832 112.203 417.16 112.23C406.55 112.63 397.38 109.79 391.35 100.27C390.38 98.7386 389.394 97.2152 388.408 95.6915C385.776 91.624 383.143 87.5541 380.8 83.3201C378.06 78.3501 373.75 78.2701 369.21 78.7901C368.33 78.8901 367.02 80.7401 366.98 81.8201C366.852 85.7159 366.912 89.6219 366.971 93.5272V93.5285V93.5297V93.531V93.5322V93.5335V93.5347V93.536V93.5373V93.5385V93.5392V93.5398V93.5405V93.5412V93.5418V93.5425C366.995 95.1254 367.019 96.7082 367.03 98.2901C367.08 103.9 369.89 106.81 375.48 107.42C376.255 107.502 376.973 108.153 377.689 108.802L377.69 108.802C378.019 109.1 378.347 109.398 378.68 109.64C378.3 109.829 377.921 110.066 377.542 110.303L377.541 110.303C376.714 110.82 375.887 111.336 375.05 111.35C365.23 111.53 355.41 111.58 345.59 111.45C344.703 111.436 343.821 110.836 342.94 110.237C342.53 109.958 342.12 109.679 341.71 109.46C342.08 109.237 342.44 108.979 342.801 108.72L342.801 108.72C343.572 108.167 344.342 107.614 345.2 107.41C352.38 105.68 353.68 104.41 353.73 96.8901C353.85 81.2401 353.85 65.5901 353.71 49.9501C353.64 42.1301 352.7 41.2801 345.01 39.0901C344.321 38.8901 343.745 38.2763 343.172 37.6652L343.172 37.6649C342.914 37.3901 342.657 37.1159 342.39 36.8801C342.714 36.6898 343.038 36.4462 343.363 36.2026C344.062 35.678 344.761 35.1533 345.45 35.1601C348.815 35.1907 352.183 35.2013 355.551 35.212H355.551C366.495 35.2466 377.446 35.2813 388.35 36.0001C399.16 36.7101 405.32 42.6401 406.7 51.2901C408.22 60.8401 404.16 67.9801 394.37 72.9401C393.676 73.2804 392.996 73.6439 391.989 74.1818L391.981 74.186C391.51 74.4375 390.968 74.727 390.32 75.0701ZM366.88 57.0601H366.86C366.86 57.8569 366.858 58.6538 366.855 59.4509V59.4517V59.4525V59.4533C366.849 61.3163 366.842 63.1807 366.87 65.0501C366.89 66.4147 366.873 67.5715 366.859 68.5511V68.5519V68.5526V68.5532V68.5538V68.5544V68.5549V68.5554V68.5558C366.823 71.0883 366.803 72.4371 367.467 73.1378C368.224 73.9363 369.869 73.8932 373.387 73.8011L373.388 73.8011C374.186 73.7802 375.079 73.7568 376.08 73.7401C383.05 73.6301 388.9 71.4301 391.37 64.1201C393.56 57.6501 393.74 51.2501 389.16 45.6801C384.25 39.7201 377.36 39.2701 370.43 40.2301C369.07 40.4201 367.24 42.9801 367.05 44.6101C366.693 47.5423 366.76 50.5205 366.827 53.5009V53.5012V53.5016V53.502V53.5023V53.5027V53.5031V53.5034V53.5038V53.5042L366.827 53.5072C366.854 54.6921 366.88 55.8773 366.88 57.0601ZM300.961 77.1856V77.186V77.1863V77.1867V77.1871V77.1874V77.1878V77.1882V77.1885C300.946 81.2835 300.93 85.3784 300.93 89.4725C300.54 90.0025 300.15 90.5325 299.76 91.0325C299.549 90.6094 299.362 90.1623 299.175 89.7146C298.77 88.7445 298.364 87.7715 297.7 87.0325C289.6 78.0459 281.456 69.0949 273.312 60.1438L273.269 60.0966L273.243 60.0686C269.194 55.6181 265.144 51.1675 261.1 46.7125L260.992 46.5936C250.19 34.6822 250.147 34.6344 234.03 35.1925C233.06 35.2264 232.108 35.6886 231.156 36.1509C230.705 36.3699 230.254 36.589 229.8 36.7625C230.21 37.046 230.608 37.375 231.007 37.7041C231.874 38.42 232.741 39.1359 233.72 39.3825C241.26 41.2825 243.65 43.6325 243.73 51.4125C243.88 66.5625 243.79 81.7225 243.51 96.8725C243.38 103.863 241.7 105.493 235.15 107.413C234.295 107.661 233.53 108.233 232.767 108.803C232.424 109.06 232.081 109.316 231.73 109.543C232.133 109.759 232.535 110.033 232.938 110.306C233.817 110.903 234.699 111.502 235.59 111.523C243.58 111.683 251.58 111.633 259.57 111.443C260.512 111.415 261.444 110.918 262.377 110.42C262.811 110.189 263.245 109.957 263.68 109.773C263.303 109.515 262.935 109.215 262.567 108.914C261.776 108.268 260.984 107.621 260.09 107.403C252.16 105.443 250.89 104.223 250.66 95.8325C250.388 86.1251 250.285 76.4117 250.182 66.6969V66.6967V66.6965V66.6964V66.6962V66.6961V66.6959V66.6957V66.6956L250.182 66.6931L250.182 66.6904L250.182 66.6877L250.182 66.6849L250.182 66.682L250.182 66.679L250.182 66.6758L250.182 66.6723C250.153 63.9058 250.124 61.1392 250.09 58.3725C250.084 57.8003 250.211 57.2281 250.392 56.4142L250.392 56.414L250.392 56.4134L250.392 56.4133L250.392 56.4131L250.392 56.4128L250.392 56.412L250.393 56.4103C250.496 55.945 250.617 55.4008 250.74 54.7325C251.329 55.363 251.847 55.9134 252.318 56.4133C253.199 57.3485 253.913 58.107 254.61 58.8825C257.988 62.6443 261.362 66.4087 264.736 70.1729C276.368 83.1495 287.999 96.1251 299.75 108.993C300.919 110.27 302.629 111.053 304.339 111.836C305.131 112.198 305.923 112.561 306.66 112.973L307.96 111.703L307.96 111.177L307.959 110.533L307.958 109.922V109.921C307.956 108.731 307.954 107.54 307.96 106.353C308.008 100.799 308.039 95.2463 308.071 89.6935C308.146 76.4272 308.221 63.1624 308.51 49.9025C308.67 42.3425 310.11 41.1925 317.16 39.1525C317.948 38.9265 318.614 38.2924 319.279 37.6582C319.586 37.3664 319.892 37.0746 320.21 36.8225C319.824 36.6468 319.438 36.4257 319.052 36.2045C318.207 35.7208 317.361 35.2362 316.51 35.2225C308.52 35.0825 300.52 35.0525 292.53 35.2325C291.493 35.253 290.47 35.7761 289.446 36.3002L289.445 36.3003C288.968 36.5444 288.49 36.7887 288.01 36.9825C288.437 37.2309 288.855 37.5104 289.274 37.79C290.222 38.4221 291.17 39.0552 292.21 39.3325C292.539 39.4198 292.871 39.5047 293.205 39.5899L293.206 39.5902C296.89 40.5308 300.739 41.5135 300.83 46.1525C301.038 56.4903 301 66.8383 300.961 77.1856ZM174.09 111.631C171.758 111.631 169.425 111.636 167.093 111.641H167.092H167.092H167.091H167.091H167.09H167.09H167.09C160.094 111.656 153.099 111.671 146.11 111.551C145.204 111.538 144.307 110.987 143.41 110.435C143.001 110.184 142.591 109.932 142.18 109.731C142.572 109.498 142.956 109.223 143.34 108.948C144.17 108.354 145.001 107.759 145.91 107.581C153.23 106.141 154.73 104.721 154.78 97.3914C154.89 81.4014 154.88 65.4114 154.78 49.4214C154.74 42.1014 153.61 40.9914 146.56 39.2314C145.781 39.0399 145.113 38.4041 144.446 37.7686C144.138 37.4748 143.83 37.1811 143.51 36.9314C143.891 36.7553 144.271 36.5317 144.652 36.3079L144.653 36.3077C145.483 35.82 146.314 35.3314 147.15 35.3314C156.69 35.255 166.23 35.2322 175.77 35.2094C183.72 35.1904 191.67 35.1714 199.62 35.1214C202.25 35.1014 203.61 35.7714 203.7 38.6814C203.763 40.6848 203.944 42.6835 204.125 44.6809L204.125 44.6812C204.319 46.8314 204.514 48.98 204.56 51.1314C204.574 51.897 204.022 52.6768 203.471 53.4545C203.223 53.8044 202.976 54.1539 202.78 54.5014C202.507 54.247 202.192 54.0087 201.877 53.7702C201.201 53.2589 200.523 52.7465 200.25 52.0714C195.96 41.6314 194.21 40.3814 182.91 40.2414C181.41 40.2242 179.91 40.2347 178.41 40.2451H178.41H178.41H178.41H178.41H178.409H178.409H178.409C176.411 40.2589 174.414 40.2728 172.42 40.2214C169.53 40.1514 168.03 41.3814 168.03 44.3214C168.03 46.1417 168.021 47.9626 168.011 49.7836C167.983 55.1257 167.954 60.4691 168.17 65.8014C168.22 66.9214 170.15 68.7914 171.34 68.8914C173.945 69.1247 176.573 69.0797 179.202 69.0346H179.202C180.743 69.0082 182.284 68.9818 183.82 69.0114C188.94 69.1114 193.17 68.2314 193.92 61.9514C193.988 61.3805 194.772 60.8974 195.556 60.4141C195.926 60.1863 196.296 59.9585 196.59 59.7214C196.771 59.9956 196.997 60.2698 197.224 60.5443L197.224 60.5444C197.725 61.1508 198.227 61.7587 198.24 62.3714C198.39 68.8614 198.39 75.3614 198.26 81.8514C198.247 82.4698 197.765 83.0788 197.284 83.6881C197.065 83.9655 196.846 84.243 196.67 84.5214C196.372 84.296 196.024 84.0907 195.677 83.8857C194.93 83.4452 194.186 83.0061 193.94 82.3714L193.863 82.1723C190.981 74.7909 190.969 74.761 182.98 74.7214C181.66 74.7142 180.339 74.7239 179.018 74.7336H179.017H179.016H179.016H179.015H179.014H179.014H179.013C176.672 74.7508 174.329 74.7681 171.99 74.6914C169.36 74.6114 167.91 75.3614 167.99 78.3114C168.063 80.8649 168.071 83.4233 168.078 85.982C168.089 89.7561 168.1 93.5309 168.32 97.2914C168.74 104.301 170.66 106.011 177.59 106.321C179.396 106.403 181.207 106.393 183.019 106.383H183.02H183.02H183.02H183.02H183.021H183.021H183.021H183.022C184.541 106.374 186.062 106.366 187.58 106.411C196.43 106.691 202.58 103.091 205.65 94.4814C205.95 93.6359 206.952 93.0368 207.956 92.4368C208.424 92.1569 208.893 91.8768 209.29 91.5714C209.391 92.0288 209.54 92.4951 209.689 92.9616C210.012 93.974 210.335 94.9872 210.17 95.9114C207.362 111.611 207.31 111.611 191.61 111.611H191.58C185.75 111.631 179.92 111.631 174.09 111.631ZM1071.19 110.851C1068.86 110.851 1066.53 110.855 1064.2 110.86C1057.21 110.873 1050.21 110.886 1043.22 110.781C1042.26 110.767 1041.31 110.304 1040.35 109.84C1039.91 109.626 1039.47 109.411 1039.03 109.241C1039.41 108.982 1039.78 108.676 1040.15 108.369C1040.95 107.704 1041.76 107.036 1042.66 106.851C1050.21 105.321 1051.62 103.981 1051.67 96.301C1051.78 80.651 1051.75 65.001 1051.67 49.351C1051.64 43.031 1050.44 38.841 1042.9 38.671C1042.29 38.6574 1041.69 38.0127 1041.09 37.3659C1040.81 37.0632 1040.52 36.7601 1040.24 36.521C1040.55 36.331 1040.86 36.09 1041.17 35.8492C1041.84 35.3294 1042.5 34.811 1043.17 34.811C1061.15 34.691 1079.14 34.641 1097.12 34.821C1098.25 34.831 1100.15 36.631 1100.35 37.821C1101.04 41.911 1101.27 46.091 1101.35 50.251C1101.36 51.032 1100.83 51.8177 1100.3 52.6049C1100.06 52.9667 1099.81 53.3288 1099.62 53.691C1099.33 53.4429 1098.97 53.2059 1098.62 52.9688C1097.85 52.4605 1097.08 51.9515 1096.98 51.331C1095.27 41.181 1088.01 39.561 1079.53 39.661C1076.03 39.701 1072.54 39.701 1069.04 39.691C1066.18 39.681 1064.75 40.961 1064.77 43.911C1064.82 50.901 1064.85 57.901 1064.74 64.891C1064.69 67.871 1066.23 68.581 1068.79 68.501C1073.61 68.351 1078.44 68.281 1083.27 68.221C1087.36 68.171 1089.67 66.221 1090.61 62.171C1090.8 61.3631 1091.59 60.7005 1092.39 60.0355C1092.75 59.7293 1093.12 59.4226 1093.43 59.101C1093.6 59.4916 1093.81 59.8801 1094.03 60.2682C1094.48 61.0924 1094.93 61.9147 1094.96 62.751C1095.16 68.571 1095.22 74.401 1095.08 80.231C1095.06 81.0543 1094.53 81.8683 1094 82.6792C1093.76 83.0502 1093.52 83.4206 1093.33 83.791C1093.04 83.5024 1092.69 83.2227 1092.33 82.9428C1091.56 82.3306 1090.79 81.7179 1090.69 81.011C1089.96 75.751 1086.72 74.121 1081.96 74.161C1080.49 74.1741 1079.02 74.1508 1077.55 74.1275C1074.52 74.0797 1071.49 74.0318 1068.49 74.301C1067.17 74.421 1065 76.371 1064.95 77.551C1064.69 84.191 1064.86 90.861 1065.09 97.511C1065.27 102.581 1067.84 105.581 1073.18 105.671C1074.32 105.691 1075.46 105.714 1076.59 105.737C1079.45 105.796 1082.3 105.854 1085.16 105.861C1093.58 105.881 1099.4 102.211 1102.35 94.071C1102.69 93.1522 1103.66 92.4638 1104.64 91.7768L1104.64 91.7762C1105.08 91.4615 1105.53 91.1471 1105.91 90.811C1106.02 91.2888 1106.18 91.7735 1106.33 92.2583L1106.33 92.2596L1106.33 92.2608L1106.33 92.262C1106.67 93.3282 1107.01 94.395 1106.87 95.391C1106.58 97.4577 1106.12 99.5004 1105.65 101.544L1105.65 101.545L1105.65 101.547L1105.65 101.548L1105.65 101.549L1105.65 101.551C1105.27 103.242 1104.89 104.934 1104.6 106.641C1104.06 109.881 1102.43 110.991 1099.16 110.931C1092.34 110.792 1085.52 110.814 1078.7 110.835C1076.2 110.843 1073.69 110.851 1071.19 110.851ZM941.874 60.9758V60.9822V60.9887C941.877 63.2206 941.88 65.5471 941.88 68.0115C941.97 69.8755 942.032 71.8675 942.098 73.9474V73.9496C942.252 78.8429 942.422 84.2219 942.99 89.5615C944.18 100.701 949.95 108.681 961.18 111.381C966.29 112.601 971.78 113.171 977 112.761C994.16 111.421 1004.23 101.071 1005.79 83.8615C1006 81.5639 1006.03 79.2567 1006.07 76.9499V76.9472C1006.08 75.9216 1006.1 74.8961 1006.13 73.8715C1006.21 71.271 1006.27 68.6696 1006.33 66.0684V66.0667V66.065V66.0633V66.0615V66.059C1006.46 60.1709 1006.59 54.284 1006.97 48.4115C1007.41 41.5115 1008.82 40.3715 1015.48 38.7615C1016.27 38.5759 1016.95 37.9272 1017.63 37.28C1017.94 36.9856 1018.25 36.6915 1018.57 36.4415C1018.2 36.2615 1017.83 36.0348 1017.45 35.8081C1016.65 35.3165 1015.84 34.8252 1015.03 34.8115C1006.7 34.6615 998.37 34.6515 990.04 34.8115C989.15 34.8252 988.269 35.3597 987.387 35.8944L987.387 35.8948C986.981 36.1405 986.576 36.3863 986.17 36.5815C986.549 36.8203 986.92 37.1023 987.292 37.3848C988.12 38.013 988.95 38.6428 989.86 38.8015C997.21 40.0815 999.05 41.6315 999.52 49.0515C1000.03 57.1915 1000.42 65.3715 1000.11 73.5115C999.87 79.7615 999.2 86.1915 997.43 92.1615C994.59 101.731 987.07 106.351 976.81 106.171C967.26 106.001 960.49 101.041 957.57 91.6515C956.54 88.3515 955.78 84.8215 955.7 81.3815C955.44 70.2215 955.44 59.0615 955.59 47.9015C955.68 41.4215 957.25 40.0415 963.8 38.8015C964.611 38.6447 965.344 38.0698 966.076 37.4948L966.076 37.4943C966.418 37.2258 966.76 36.9574 967.11 36.7315C966.714 36.5223 966.318 36.2568 965.921 35.9911C965.067 35.4186 964.211 34.8451 963.35 34.8315C953.85 34.6815 944.35 34.6815 934.86 34.8715C933.754 34.8921 932.662 35.4604 931.571 36.0282L931.57 36.0287C931.073 36.287 930.577 36.5451 930.08 36.7515C930.525 36.9816 930.964 37.2542 931.403 37.527L931.403 37.5274C932.376 38.1318 933.35 38.7368 934.39 38.8815C939.29 39.5715 941.92 42.0315 941.89 47.1115C941.863 51.5686 941.868 56.0211 941.874 60.9299V60.9408V60.9521V60.9637V60.9758ZM699.3 111.131C697.966 111.128 696.631 111.135 695.297 111.142C691.963 111.159 688.631 111.176 685.31 111.041C684.642 111.013 683.997 110.461 683.353 109.909C683.053 109.651 682.753 109.394 682.45 109.191C682.7 108.979 682.939 108.736 683.179 108.492C683.699 107.963 684.221 107.433 684.85 107.221C690.63 105.221 691.1 104.371 689.08 98.7107L689.059 98.65C683.49 83.0905 683.469 83.0308 666.99 83.1207C665.616 83.1294 664.476 83.1046 663.522 83.0838H663.521C661.178 83.0328 659.953 83.0061 659.11 83.5602C658.187 84.1666 657.722 85.4688 656.746 88.1963C656.477 88.9504 656.168 89.8133 655.8 90.8007C654.7 93.7607 653.63 96.7407 652.7 99.7607C651.2 104.591 652.11 105.891 657.09 107.091C658.057 107.325 658.943 107.904 659.83 108.483C660.227 108.742 660.625 109.002 661.03 109.231C660.561 109.432 660.093 109.685 659.626 109.937C658.61 110.485 657.594 111.033 656.56 111.061C649.23 111.251 641.9 111.211 634.57 111.041C633.9 111.027 633.239 110.466 632.578 109.905L632.577 109.904C632.272 109.645 631.967 109.386 631.66 109.181C631.917 108.959 632.165 108.689 632.413 108.42C632.949 107.839 633.482 107.26 634.09 107.171C641.37 106.091 644.03 100.471 646.47 94.7207C652.005 81.66 657.499 68.5788 662.993 55.4992L663.037 55.3944C665.201 50.2424 667.364 45.0908 669.53 39.9407C669.651 39.6549 669.754 39.3537 669.857 39.0526C670.085 38.3844 670.313 37.717 670.74 37.2207C671.578 36.2362 672.533 35.3493 673.489 34.4612L673.493 34.4571C673.905 34.0745 674.317 33.6917 674.72 33.3007C675.069 33.7167 675.461 34.1141 675.853 34.5112C676.675 35.3452 677.497 36.178 677.91 37.1807C682.778 49.0346 687.589 60.9168 692.4 72.7991C695.15 79.5914 697.9 86.3837 700.66 93.1707C700.915 93.7948 701.155 94.4403 701.396 95.0892C702.225 97.3203 703.07 99.5926 704.58 101.181C706.18 102.862 708.272 104.07 710.369 105.281C711.366 105.856 712.363 106.433 713.31 107.061C714.044 107.547 714.733 108.096 715.422 108.645C715.766 108.92 716.11 109.194 716.46 109.461C716.081 109.636 715.702 109.854 715.323 110.072L715.323 110.073C714.493 110.55 713.661 111.029 712.81 111.071C709.481 111.211 706.158 111.182 702.836 111.154H702.835H702.834H702.834C701.656 111.143 700.478 111.133 699.3 111.131ZM670.99 52.5307C670.51 52.5907 670.03 52.6507 669.54 52.7207C667.103 59.4511 664.665 66.1743 662.15 73.1125L662.017 73.4799L661.758 74.1927L660.74 77.0007H680.34C678.828 73.0424 677.373 69.2352 675.95 65.5109C674.266 61.1059 672.627 56.8168 670.99 52.5307ZM784.304 33.2138L784.296 33.2127C781.995 32.9046 779.564 32.5793 776.94 32.2303C775.306 32.5668 773.518 32.866 771.638 33.1807C767.201 33.9231 762.248 34.7521 757.57 36.3603C740.99 42.0903 731.01 56.2303 730.74 73.0003C730.471 89.8203 739.4 103.31 755.12 109.56C769.1 115.12 783.29 113.29 797.44 110.37C798.53 110.14 799.93 108.98 800.27 107.95C802.1 102.43 803.71 96.8203 805.19 91.1903C805.4 90.4103 804.63 88.7603 803.95 88.5103C803.21 88.2403 801.74 88.8903 801.14 89.6003C800.422 90.4403 799.906 91.4547 799.39 92.4694C799.144 92.9526 798.898 93.4358 798.63 93.9003C794.67 100.8 789.58 106.37 781.29 107.74C767.49 110.02 755.24 103.3 749.62 90.4703C745.54 81.1503 744.97 71.3703 746.92 61.5503C749.65 47.7903 758.781 39.3903 771.86 37.9103C784.901 36.4403 791.88 40.7103 798.37 53.9603C798.685 54.6098 799.415 55.0583 800.146 55.5072C800.485 55.7148 800.823 55.9226 801.12 56.1503C801.293 55.7868 801.515 55.4204 801.737 55.0541C802.225 54.2514 802.712 53.4494 802.67 52.6803C802.536 50.3697 802.272 48.0645 802.007 45.759L802.007 45.7564C801.759 43.5927 801.511 41.4289 801.37 39.2603C801.18 36.3003 799.581 35.2303 796.96 34.8903C792.91 34.3657 788.859 33.8235 784.304 33.2138ZM1161.8 32.6002C1161.91 32.6002 1162.02 32.5991 1162.13 32.598C1162.36 32.5958 1162.58 32.5935 1162.8 32.6002C1177.64 33.0502 1181.67 37.3202 1181.15 52.1602C1181.13 52.709 1180.78 53.2483 1180.43 53.7879C1180.27 54.035 1180.11 54.2821 1179.98 54.5302C1179.65 54.3589 1179.28 54.2128 1178.9 54.0666C1178.08 53.7433 1177.25 53.4192 1176.88 52.8202C1176.2 51.7111 1175.67 50.5072 1175.14 49.3045C1174.53 47.9156 1173.92 46.5282 1173.08 45.2902C1168.38 38.3102 1160.1 35.7302 1152.96 38.7502C1144.57 42.3002 1142.73 53.1502 1149.91 58.7102C1152.47 60.6874 1155.51 62.0585 1158.54 63.4197L1158.54 63.4207C1159.48 63.8422 1160.41 64.2628 1161.33 64.7002C1162.81 65.4065 1164.34 66.0257 1165.87 66.6445L1165.87 66.6452C1167.73 67.4016 1169.6 68.1573 1171.38 69.0702C1181.89 74.4402 1186.29 81.7702 1185.15 91.6602C1184.05 101.3 1176.68 109.15 1166.12 111.7C1156.57 114 1147.19 113.15 1138.4 108.8C1136.38 107.8 1134.57 105.23 1133.84 103C1132.71 99.5712 1132.2 95.9357 1131.68 92.3212C1131.61 91.8035 1131.54 91.2863 1131.46 90.7702C1131.36 90.0442 1131.66 89.256 1131.96 88.4685L1131.96 88.4669C1132.1 88.116 1132.23 87.7653 1132.33 87.4202C1132.7 87.6132 1133.11 87.7781 1133.53 87.9433C1134.44 88.3086 1135.36 88.6753 1135.83 89.3502C1136.91 90.8892 1137.88 92.5197 1138.85 94.1482L1138.85 94.1495C1140.35 96.6579 1141.84 99.1618 1143.73 101.32C1148.1 106.32 1153.95 108.73 1160.77 107.71C1166.42 106.87 1170.8 104.21 1172.55 98.3702C1174.33 92.4402 1172.74 87.3202 1167.88 83.7102C1165.36 81.8297 1162.47 80.4206 1159.6 79.017C1158.73 78.5918 1157.86 78.1672 1157 77.7302C1155.38 76.9009 1153.7 76.1496 1152.03 75.3986C1148.98 74.0305 1145.94 72.6637 1143.21 70.8302C1131.1 62.7002 1131.03 45.6302 1143.43 37.8602C1147.06 35.5879 1151.33 34.3445 1155.6 33.1015C1157.54 32.5394 1159.47 31.9773 1161.34 31.3202C1161.5 31.7402 1161.65 32.1702 1161.8 32.6002ZM475.835 62.0878C474.412 64.965 472.99 67.8422 471.57 70.7205C471.03 70.7705 470.49 70.8305 469.95 70.9005C468.613 68.6197 467.272 66.3406 465.931 64.0614C462.58 58.3663 459.23 52.6712 455.93 46.9505C452.61 41.1905 452.89 40.7805 459.25 39.1105C460.013 38.9129 460.66 38.2558 461.308 37.5978C461.612 37.2899 461.915 36.9819 462.23 36.7205C461.89 36.5373 461.551 36.3035 461.213 36.0702C460.5 35.5776 459.79 35.0873 459.07 35.0805C449.91 34.9805 440.75 35.0005 431.59 35.1605C430.873 35.1742 430.161 35.6635 429.447 36.154C429.115 36.3817 428.783 36.6098 428.45 36.7905C428.761 37.0507 429.062 37.3638 429.364 37.6771C430.024 38.3634 430.685 39.0501 431.44 39.1805C435.79 39.9205 438.54 42.5005 440.68 46.1105C441.752 47.9147 442.799 49.7391 443.846 51.5643C446.617 56.3958 449.391 61.2323 452.65 65.7105C459.29 74.8405 461.31 84.7605 460.45 95.8105C459.76 104.641 459.32 105.601 450.75 107.391C449.916 107.568 449.161 108.134 448.409 108.698C448.061 108.959 447.714 109.219 447.36 109.441C447.768 109.652 448.174 109.918 448.58 110.184C449.459 110.761 450.338 111.337 451.22 111.351C461.71 111.511 472.21 111.521 482.7 111.361C483.737 111.347 484.764 110.791 485.789 110.237C486.256 109.984 486.723 109.731 487.19 109.531C486.738 109.284 486.294 108.995 485.85 108.707C484.89 108.083 483.93 107.459 482.89 107.261C475.31 105.811 474.41 104.571 473.65 96.7705C472.42 84.2305 474.24 72.6505 482.21 62.3905C484.298 59.7005 486.067 56.7621 487.835 53.8255C488.65 52.472 489.465 51.1188 490.31 49.7905C493.66 44.5205 497.01 39.3005 504.23 38.8905C504.89 38.8505 505.97 37.6805 505.97 37.0405C505.98 36.3705 504.9 35.1405 504.29 35.1305C495.63 35.0105 486.97 35.0205 478.31 35.1505C477.65 35.1605 476.54 36.2905 476.5 36.9505C476.46 37.5905 477.41 38.5705 478.15 38.9105C479.012 39.3076 480.024 39.4192 481.016 39.5287C481.199 39.5488 481.38 39.5688 481.56 39.5905C484.98 40.0205 485.79 41.8505 484.35 44.8005C481.53 50.5689 478.682 56.3283 475.835 62.0878Z" f="black"></path>
</svg>